<svg xmlns="http://www.w3.org/2000/svg" width="64" height="64" fill="none" viewBox="0 0 64 64">
  <path fill="url(#paint0_linear)" d="M60.13 30.254l-8.877-17.798-.079-.148a1.242 1.242 0 00-1.118-.683c-.214 0-.42 0-.6.125H37.907c-.61-2.625-3.04-4.733-5.908-4.733-2.868 0-5.299 2.108-5.908 4.733H14.545a1.012 1.012 0 00-.601-.15 1.253 1.253 0 00-1.119.696L3.871 30.252a1.25 1.25 0 00-.965 1.217c0 5.476 4.952 9.931 11.038 9.931 6.082 0 11.03-4.454 11.03-9.93a1.258 1.258 0 00-.956-1.221L16.042 14.25h10.01a6.102 6.102 0 004.698 4.775v23.072c-4.278.488-7.659 3.403-8.132 7.153h-2.94c-.69 0-1.303.541-1.303 1.232v5.237A1.324 1.324 0 0019.679 57H44.32a1.324 1.324 0 001.304-1.281v-5.238c0-.69-.614-1.231-1.304-1.231h-2.94c-.472-3.75-3.853-6.666-8.131-7.153V19.025a6.1 6.1 0 004.697-4.775h10.01l-7.975 15.999a1.254 1.254 0 00-.957 1.217c0 5.476 4.949 9.933 11.031 9.933 6.086 0 11.038-4.454 11.038-9.93a1.248 1.248 0 00-.965-1.215zM13.943 38.93c-4.219 0-7.732-2.681-8.417-6.181h16.827c-.684 3.5-4.195 6.181-8.41 6.181zm7.262-8.681H6.681l7.263-14.562 7.262 14.562zm21.919 21.5v2.75h-22.25v-2.75h22.25zm-4.274-2.5H25.148c.53-2.625 3.4-4.708 6.852-4.708 3.451 0 6.321 2.083 6.851 4.708zM32 16.655a3.567 3.567 0 01-3.562-3.516c.004-.035.006-.07.007-.106a3.556 3.556 0 017.11 0c0 .036.003.071.007.107A3.566 3.566 0 0132 16.654zm18.056-.968l7.263 14.563H42.794l7.262-14.563zm0 23.244c-4.215 0-7.726-2.681-8.41-6.181h16.827c-.686 3.5-4.198 6.181-8.417 6.181z"/>
  <defs>
    <linearGradient id="paint0_linear" x1="32" x2="32" y1="7.618" y2="55.1" gradientUnits="userSpaceOnUse">
      <stop stop-color="#EFC12B"/>
      <stop offset="1" stop-color="#FC8E0F"/>
    </linearGradient>
  </defs>
</svg>
