<svg width="64" height="64" viewBox="0 0 64 64" fill="none" xmlns="http://www.w3.org/2000/svg">
<path d="M46.7379 14.998V8.125H50.5129C50.8445 8.125 51.1624 7.9933 51.3968 7.75888C51.6312 7.52446 51.7629 7.20652 51.7629 6.875C51.7629 6.54348 51.6312 6.22554 51.3968 5.99112C51.1624 5.7567 50.8445 5.625 50.5129 5.625H13.4873C13.1558 5.625 12.8378 5.7567 12.6034 5.99112C12.369 6.22554 12.2373 6.54348 12.2373 6.875C12.2373 7.20652 12.369 7.52446 12.6034 7.75888C12.8378 7.9933 13.1558 8.125 13.4873 8.125H16.6623V14.8955C16.6629 16.1855 16.9349 17.461 17.4607 18.639C17.9865 19.817 18.7543 20.8712 19.7142 21.733L30.4676 31.5955L20.1676 41.4618C19.2521 42.3219 18.5222 43.3602 18.0226 44.5127C17.523 45.6653 17.2642 46.9078 17.2623 48.164V55.875H13.4873C13.1558 55.875 12.8378 56.0067 12.6034 56.2411C12.369 56.4755 12.2373 56.7935 12.2373 57.125C12.2373 57.4565 12.369 57.7745 12.6034 58.0089C12.8378 58.2433 13.1558 58.375 13.4873 58.375H50.5131C50.8446 58.375 51.1625 58.2433 51.3969 58.0089C51.6314 57.7745 51.7631 57.4565 51.7631 57.125C51.7631 56.7935 51.6314 56.4755 51.3969 56.2411C51.1625 56.0067 50.8446 55.875 50.5131 55.875H47.3373V48.2665C47.3367 46.9765 47.0647 45.701 46.5389 44.523C46.0131 43.345 45.2453 42.2908 44.2854 41.429L33.5321 31.5665L43.8321 21.7005C44.7477 20.8403 45.4777 19.8021 45.9775 18.6495C46.4772 17.4969 46.736 16.2543 46.7379 14.998V14.998ZM24.3063 55.875L31.9344 47.004L39.5623 55.875H24.3063ZM42.6123 43.2865C43.3122 43.9138 43.8721 44.6814 44.2556 45.5394C44.6391 46.3975 44.8375 47.3267 44.8381 48.2665V55.875H42.8598L32.8823 44.2718C32.765 44.1353 32.6195 44.0258 32.456 43.9507C32.2924 43.8756 32.1145 43.8368 31.9346 43.8368C31.7546 43.8368 31.5767 43.8756 31.4132 43.9507C31.2496 44.0258 31.1042 44.1353 30.9868 44.2718L21.0092 55.875H19.7623V48.164C19.7637 47.2487 19.9524 46.3434 20.3168 45.5037C20.6812 44.6641 21.2136 43.9079 21.8812 43.2817C21.8848 43.2784 21.8886 43.2749 21.8921 43.2714L32.0191 33.5714L42.6014 43.2767C42.6044 43.2799 42.6081 43.2832 42.6123 43.2865ZM42.1196 19.8803C42.1159 19.8836 42.1122 19.8871 42.1087 19.8906L31.9817 29.5906L21.3993 19.8853L21.3873 19.875C20.6874 19.2477 20.1275 18.4801 19.744 17.6221C19.3605 16.764 19.1621 15.8348 19.1616 14.895V8.125H44.2373V14.998C44.2361 15.9133 44.0475 16.8186 43.6832 17.6582C43.3189 18.4979 42.7866 19.2541 42.1191 19.8803H42.1196Z" fill="url(#paint0_linear)"/>
<defs>
<linearGradient id="paint0_linear" x1="32.0002" y1="6.25956" x2="32.0002" y2="56.3699" gradientUnits="userSpaceOnUse">
<stop stop-color="#EFC12B"/>
<stop offset="1" stop-color="#FC8E0F"/>
</linearGradient>
</defs>
</svg>
