<svg xmlns="http://www.w3.org/2000/svg" width="64" height="64" fill="none" viewBox="0 0 64 64">
  <path fill="url(#paint0_linear)" d="M47.625 27.617v-9.34a15.72 15.72 0 00-4.67-11.254c-2.917-2.895-6.73-4.482-10.76-4.482l-.204.001c-8.611.005-15.616 7.061-15.616 15.734v9.341c-3.25.387-5.625 3.114-5.625 6.414v20.966c0 3.563 2.845 6.503 6.408 6.503h29.684c3.564 0 6.408-2.94 6.408-6.503V34.031c0-3.3-2.375-6.027-5.625-6.414zm-28.75-9.34C18.875 10.978 24.764 5 32 5h.017a12.914 12.914 0 019.177 3.777 13.284 13.284 0 013.931 9.5v9.348h-2.75v-9.349a10.549 10.549 0 00-3.11-7.556 10.128 10.128 0 00-7.167-2.97h-.078c-5.752 0-10.395 4.725-10.395 10.526v9.35h-2.75v-9.35zm21 0v9.348h-15.75v-9.349c0-4.423 3.522-8.026 7.895-8.026h.078a7.642 7.642 0 015.408 2.246 8.064 8.064 0 012.369 5.78zm11 36.76A3.963 3.963 0 0146.913 59h-29.7a3.963 3.963 0 01-3.963-3.962v-20.95a3.962 3.962 0 013.962-3.963h29.7a3.962 3.962 0 013.963 3.963v20.95z"/>
  <path fill="url(#paint1_linear)" d="M32 40.52a4.508 4.508 0 00-1.25 8.838v3.495a1.25 1.25 0 002.5 0v-3.495A4.507 4.507 0 0032 40.521zm0 6.516a2.008 2.008 0 110-4.015 2.008 2.008 0 010 4.015z"/>
  <defs>
    <linearGradient id="paint0_linear" x1="32" x2="32" y1="3.25" y2="59.259" gradientUnits="userSpaceOnUse">
      <stop stop-color="#EFC12B"/>
      <stop offset="1" stop-color="#FC8E0F"/>
    </linearGradient>
    <linearGradient id="paint1_linear" x1="32" x2="32" y1="40.684" y2="53.587" gradientUnits="userSpaceOnUse">
      <stop stop-color="#EFC12B"/>
      <stop offset="1" stop-color="#FC8E0F"/>
    </linearGradient>
  </defs>
</svg>
