<svg xmlns="http://www.w3.org/2000/svg" width="64" height="64" fill="none" viewBox="0 0 64 64">
  <path fill="url(#paint0_linear)" d="M47.77 26.928a1.25 1.25 0 001.768-.008l7.302-7.363a1.25 1.25 0 00-.004-1.764l-7.301-7.302a1.25 1.25 0 10-1.768 1.768l5.168 5.168h-7.509a11.307 11.307 0 00-8.978 4.471l-6.06 8.028-6.062-8.028a11.308 11.308 0 00-8.978-4.471h-7.3a1.25 1.25 0 000 2.5h7.3a8.794 8.794 0 016.982 3.477L28.82 32l-6.489 8.596a8.797 8.797 0 01-6.983 3.477h-7.3a1.25 1.25 0 000 2.5h7.3a11.307 11.307 0 008.978-4.47l6.061-8.028 6.061 8.028a11.308 11.308 0 008.979 4.47h7.508l-5.168 5.168a1.25 1.25 0 101.767 1.768l7.302-7.302a1.25 1.25 0 00.004-1.764l-7.302-7.363a1.25 1.25 0 10-1.775 1.76l5.19 5.233h-7.527a8.795 8.795 0 01-6.983-3.477L31.953 32l6.49-8.596a8.796 8.796 0 016.983-3.477h7.526l-5.189 5.233a1.249 1.249 0 00.008 1.768z"/>
  <defs>
    <linearGradient id="paint0_linear" x1="32" x2="32" y1="10.651" y2="52.216" gradientUnits="userSpaceOnUse">
      <stop stop-color="#EFC12B"/>
      <stop offset="1" stop-color="#FC8E0F"/>
    </linearGradient>
  </defs>
</svg>
