<svg xmlns="http://www.w3.org/2000/svg" width="64" height="64" fill="none" viewBox="0 0 64 64">
  <path fill="url(#paint0_linear)" d="M58.869 7H55.5V3.616a.973.973 0 00-.977-.991H51.23a.975.975 0 00-.98.991v.509h-36.5v-.509a.973.973 0 00-.98-.991H9.477a.974.974 0 00-.977.991V7H5.131a1.03 1.03 0 00-1.006 1.029v3.16c0 .553.454 1.061 1.006 1.061H8.5v3.352a1.001 1.001 0 00.977 1.023h3.293a.905.905 0 00.48-.154V47.53a.905.905 0 00-.48-.154H9.477a1.001 1.001 0 00-.977 1.023v3.352H5.131c-.552 0-1.006.508-1.006 1.06v3.161A1.03 1.03 0 005.131 57H8.5v3.384a.974.974 0 00.977.991h3.293a.974.974 0 00.98-.991v-.509h36.5v.509a.973.973 0 00.98.991h3.293a.974.974 0 00.977-.991V57h3.369a1.03 1.03 0 001.006-1.029v-3.16c0-.553-.454-1.061-1.006-1.061H55.5v-3.352a1.001 1.001 0 00-.977-1.023H51.23a1.003 1.003 0 00-.98 1.023v.477H50v-33.75h.25v.477a1.003 1.003 0 00.98 1.023h3.293a1.001 1.001 0 00.977-1.023V12.25h3.369c.552 0 1.006-.508 1.006-1.06V8.029A1.03 1.03 0 0058.869 7zM6.125 10.25V9H8.5v1.25H6.125zm5.625 4.375H10.5v-10h1.25v10zM6.125 55v-1.25H8.5V55H6.125zm5.625 4.375H10.5v-10h1.25v10zm46.125-5.625V55H55.5v-1.25h2.375zm-5.625-4.375h1.25v10h-1.25v-10zm-2 8.5h-36.5v-7h36.5v7zm-2.25-9H15.25v-33.75H48v33.75zm-34.25-35.75v-7h36.5v7h-36.5zm39.75 1.5h-1.25v-10h1.25v10zm4.375-4.375H55.5V9h2.375v1.25z"/>
  <defs>
    <linearGradient id="paint0_linear" x1="32" x2="32" y1="3.332" y2="59.142" gradientUnits="userSpaceOnUse">
      <stop stop-color="#EFC12B"/>
      <stop offset="1" stop-color="#FC8E0F"/>
    </linearGradient>
  </defs>
</svg>
