<svg xmlns="http://www.w3.org/2000/svg" width="64" height="64" fill="none" viewBox="0 0 64 64">
  <path fill="url(#paint0_linear)" d="M31.692 27.604A11.802 11.802 0 1019.89 15.802a11.816 11.816 0 0011.802 11.802zm0-21.104a9.302 9.302 0 11-9.302 9.302A9.312 9.312 0 0131.692 6.5z"/>
  <path fill="url(#paint1_linear)" d="M32 31.762A21.943 21.943 0 0010.05 53.713v5.038a1.25 1.25 0 001.25 1.25H52.7a1.25 1.25 0 001.25-1.25v-5.038a21.943 21.943 0 00-21.95-21.951zM51.451 57.5H12.55v-3.788c0-10.725 8.726-19.451 19.451-19.451s19.451 8.726 19.451 19.451v3.788z"/>
  <defs>
    <linearGradient id="paint0_linear" x1="31.692" x2="31.692" y1="4.284" y2="26.707" gradientUnits="userSpaceOnUse">
      <stop stop-color="#EFC12B"/>
      <stop offset="1" stop-color="#FC8E0F"/>
    </linearGradient>
    <linearGradient id="paint1_linear" x1="32" x2="32" y1="32.101" y2="58.927" gradientUnits="userSpaceOnUse">
      <stop stop-color="#EFC12B"/>
      <stop offset="1" stop-color="#FC8E0F"/>
    </linearGradient>
  </defs>
</svg>
