<?xml version="1.0" encoding="utf-8"?>
<!-- Generator: Adobe Illustrator 25.4.1, SVG Export Plug-In . SVG Version: 6.00 Build 0)  -->
<!DOCTYPE svg PUBLIC "-//W3C//DTD SVG 1.1 Basic//EN" "http://www.w3.org/Graphics/SVG/1.1/DTD/svg11-basic.dtd" [
	<!ENTITY ns_extend "http://ns.adobe.com/Extensibility/1.0/">
	<!ENTITY ns_ai "http://ns.adobe.com/AdobeIllustrator/10.0/">
	<!ENTITY ns_graphs "http://ns.adobe.com/Graphs/1.0/">
	<!ENTITY ns_vars "http://ns.adobe.com/Variables/1.0/">
	<!ENTITY ns_imrep "http://ns.adobe.com/ImageReplacement/1.0/">
	<!ENTITY ns_sfw "http://ns.adobe.com/SaveForWeb/1.0/">
	<!ENTITY ns_custom "http://ns.adobe.com/GenericCustomNamespace/1.0/">
	<!ENTITY ns_adobe_xpath "http://ns.adobe.com/XPath/1.0/">
]>
<svg version="1.1" baseProfile="basic" id="Layer_1" xmlns:x="&ns_extend;" xmlns:i="&ns_ai;" xmlns:graph="&ns_graphs;"
	 xmlns="http://www.w3.org/2000/svg" xmlns:xlink="http://www.w3.org/1999/xlink" x="0px" y="0px" viewBox="0 0 725.8 94.1"
	 xml:space="preserve">
<style type="text/css">
	.st0{fill:#FFFFFF;}
	.st1{fill:url(#SVGID_1_);}
	.st2{fill:#14273F;}
	.st3{fill:url(#SVGID_00000129927634714875231630000005488294444243663502_);}
	
		.st4{fill:url(#SVGID_00000090268984938520367480000017463479908691841925_);stroke:url(#SVGID_00000109005904414562445920000015988025815924032702_);stroke-miterlimit:10;}
	.st5{fill:url(#SVGID_00000179637303868643453160000015469873137813176963_);}
	.st6{fill:#D3D3D4;}
	.st7{fill:#D4D4D4;}
	.st8{fill:#898F94;}
	.st9{fill:none;stroke:#2D2828;}
</style>
<metadata>
	<sfw  xmlns="&ns_sfw;">
		<slices></slices>
		<sliceSourceBounds  bottomLeftOrigin="true" height="90.8" width="703.7" x="4.4" y="1.5"></sliceSourceBounds>
	</sfw>
</metadata>
<title>Olympus-locker-logo</title>
<path class="st0" d="M108.9,45.5c0.2-1.4,0.4-2.7,0.7-4.1c2.3-11.9,12.8-20.5,24.9-20.5c10.7-0.1,19.1,4.3,24,13.8
	c7.4,14.4,1,33.7-16.8,37.8c-16.8,3.8-28.4-6.4-31.6-17.7c-0.5-1.7-0.6-3.5-0.9-5.2c0-0.3-0.1-0.6-0.2-0.9L108.9,45.5z M119.5,46.9
	c0,0.8,0.1,1.4,0.1,2c1.3,13.2,14.2,17.6,23.2,12.6c6.1-3.3,8.4-9,7.9-15.8c-0.8-12.3-12.3-18.1-22.4-13.6
	C122.2,34.9,119.7,40.4,119.5,46.9z"/>
<path class="st0" d="M322,21v52.2h-10.4V43.4l-0.3-0.1l-15.4,17.1l-15.6-17.3v30.1h-10.5V21c1.1,0,2.2-0.1,3.2,0
	c0.4,0,0.7,0.5,1,0.8l21.1,24c0.2,0.3,0.5,0.5,0.9,0.9c0.5-0.5,0.9-1,1.3-1.5c6.7-7.6,13.4-15.3,20.1-22.9c0.7-1,1.8-1.5,3-1.3
	C320.9,21,321.5,21,322,21z"/>
<path class="st0" d="M380.5,20.8H391v1.4c0,9.7,0,19.3,0,29c0,7.6,4.9,10.9,10.8,11.3c1.8,0.1,3.6,0,5.3-0.4c5.4-1.3,8.3-5,8.3-10.5
	c0-9.7,0-19.5,0-29.2v-1.5h10.5v1.4c0,10.2-0.1,20.4,0,30.6c0.1,8.7-4.1,14.7-11.8,17.9c-9.5,4-19,3.4-27.3-3.4
	c-4.1-3.2-6.4-8.1-6.3-13.3c0-10.9,0-21.8,0-32.7C380.5,21.3,380.5,21.1,380.5,20.8z"/>
<path class="st0" d="M332.5,21.1c0.1,0,0.2-0.1,0.3-0.1c8.5,0,16.9,0,25.4,0.1c2,0.1,4,0.5,5.9,1.1c5.8,1.8,9,5.9,9.3,12
	c0.1,2.3,0,4.7-0.5,7c-1.3,5.8-5.4,8.8-11,9.9c-2.2,0.4-4.4,0.6-6.6,0.7c-3.6,0.1-7.3,0-11,0h-1.4v21.5h-10.4V21.1z M342.9,41.8h2.1
	c4.6,0,9.1,0,13.7-0.1c3.2-0.1,5.1-2.2,5.3-5.3c0.3-2.7-1.6-5.1-4.3-5.3c-0.2,0-0.4,0-0.6,0c-5.3-0.3-10.6-0.2-15.9-0.2
	c-0.1,0-0.1,0.1-0.3,0.2V41.8z"/>
<path class="st0" d="M472.9,27.8l-7,7c-1.6-1.8-3.7-3.1-6.1-3.7c-2.8-0.7-5.7-0.6-8.5,0.3c-0.9,0.3-1.8,0.8-2.5,1.5
	c-2.3,2.6-2.1,5.6,1.2,7c2.2,0.9,4.5,1.5,6.8,1.9c3.5,0.5,7,1.7,10.1,3.5c5.3,3,7,7.8,6.7,13.5s-4.1,9.3-8.9,12
	c-4.2,2.4-8.7,2.7-13.4,2.4c-6.1-0.2-11.9-2.6-16.5-6.6c-0.3-0.3-0.6-0.6-0.8-0.8l7-7c0.5,0.5,1,0.9,1.5,1.3
	c4.6,3.2,10.4,4.1,15.8,2.5c2.2-0.5,3.8-2.5,3.8-4.8c0.2-2.3-1-4.4-3.1-5.3c-2.4-1.2-4.9-1.4-7.5-1.8c-3.4-0.5-6.7-1.6-9.8-3.3
	c-3.4-1.8-5.6-5.3-5.8-9.1c-0.6-7.4,2.4-12.2,9.6-15.6c4.2-2,8.6-2.1,13.2-1.7c5.2,0.4,10.1,2.7,13.7,6.4
	C472.7,27.6,472.8,27.7,472.9,27.8z"/>
<path class="st0" d="M242.8,73.2h-10.5v-1.4c0-7.8,0-15.6,0-23.4c0-0.8-0.3-1.6-0.8-2.3c-5.8-8-11.7-16-17.5-24
	c-0.2-0.3-0.5-0.7-0.9-1.2h1.4c3.3,0,6.5,0,9.8,0c0.7-0.1,1.4,0.3,1.8,0.9c3.6,5.1,7.2,10.1,10.7,15.2l0.7,1l6.3-8.6
	c1.8-2.5,3.7-5.1,5.5-7.6c0.2-0.4,0.6-0.7,1.1-0.8c3.8-0.1,7.5,0,11.5,0c-0.4,0.5-0.6,0.9-0.9,1.2c-5.8,8-11.7,15.9-17.5,24
	c-0.5,0.7-0.8,1.5-0.8,2.4c-0.1,7.8,0,15.5,0,23.2L242.8,73.2z"/>
<path class="st0" d="M169.4,21h10.4v42.5h27.8v9.7h-38.2V21z"/>
<linearGradient id="SVGID_1_" gradientUnits="userSpaceOnUse" x1="503.285" y1="83.025" x2="503.285" y2="14.835" gradientTransform="matrix(1 0 0 -1 0 96)">
	<stop  offset="0" style="stop-color:#EED727"/>
	<stop  offset="1" style="stop-color:#FB730C"/>
</linearGradient>
<rect x="500.7" y="13" class="st1" width="5.2" height="68.2"/>
<circle class="st2" cx="49.8" cy="47.3" r="44.6"/>
<linearGradient id="SVGID_00000034056862919573803080000017586413428109639062_" gradientUnits="userSpaceOnUse" x1="49.7548" y1="1.8738" x2="49.7548" y2="92.6357">
	<stop  offset="0" style="stop-color:#FF7A04"/>
	<stop  offset="1" style="stop-color:#EED827"/>
</linearGradient>
<path style="fill:url(#SVGID_00000034056862919573803080000017586413428109639062_);" d="M49.8,3.5c5.9,0,11.6,1.2,17,3.4
	c5.2,2.2,9.9,5.4,13.9,9.4c4,4,7.2,8.7,9.4,13.9c2.3,5.4,3.4,11.1,3.4,17s-1.2,11.6-3.4,17c-2.2,5.2-5.4,9.9-9.4,13.9
	c-4,4-8.7,7.2-13.9,9.4c-5.4,2.3-11.1,3.4-17,3.4s-11.6-1.2-17-3.4c-5.2-2.2-9.9-5.4-13.9-9.4c-4-4-7.2-8.7-9.4-13.9
	C7.2,58.9,6,53.2,6,47.3s1.2-11.6,3.4-17c2.2-5.2,5.4-9.9,9.4-13.9c4-4,8.7-7.2,13.9-9.4C38.1,4.7,43.8,3.5,49.8,3.5 M49.8,1.9
	C24.7,1.9,4.4,22.2,4.4,47.3s20.3,45.4,45.4,45.4s45.4-20.3,45.4-45.4S74.8,1.9,49.8,1.9L49.8,1.9z"/>
<linearGradient id="SVGID_00000032623159518055545060000002263250427291779472_" gradientUnits="userSpaceOnUse" x1="49.7548" y1="77.4044" x2="49.7548" y2="17.1051">
	<stop  offset="3.356507e-07" style="stop-color:#FB740C"/>
	<stop  offset="1" style="stop-color:#EED727"/>
</linearGradient>
<linearGradient id="SVGID_00000009548780713838641280000007382220006806518713_" gradientUnits="userSpaceOnUse" x1="19.1051" y1="47.2547" x2="80.4044" y2="47.2547">
	<stop  offset="0" style="stop-color:#FFFFFF"/>
	<stop  offset="1" style="stop-color:#000000"/>
</linearGradient>
<circle style="fill:url(#SVGID_00000032623159518055545060000002263250427291779472_);stroke:url(#SVGID_00000009548780713838641280000007382220006806518713_);stroke-miterlimit:10;" cx="49.8" cy="47.3" r="30.1"/>
<linearGradient id="SVGID_00000123436523438620825250000014551999680166876858_" gradientUnits="userSpaceOnUse" x1="49.7548" y1="16.6071" x2="49.7548" y2="77.9024">
	<stop  offset="1.023029e-03" style="stop-color:#FA7F0D"/>
	<stop  offset="1" style="stop-color:#EED626"/>
</linearGradient>
<path style="fill:url(#SVGID_00000123436523438620825250000014551999680166876858_);" d="M49.8,18.2c7.8,0,15,3,20.5,8.5
	c5.5,5.5,8.5,12.8,8.5,20.5s-3,15-8.5,20.5c-5.5,5.5-12.8,8.5-20.5,8.5s-15-3-20.5-8.5c-5.5-5.5-8.5-12.8-8.5-20.5s3-15,8.5-20.5
	S42,18.2,49.8,18.2 M49.8,16.6c-16.9,0-30.6,13.7-30.6,30.6s13.7,30.6,30.6,30.6s30.6-13.7,30.6-30.6S66.7,16.6,49.8,16.6L49.8,16.6
	z"/>
<path class="st6" d="M86.1,46.3c0,0.4,0.3,0.7,0.8,0.7l3.7,0c0.4,0,0.7-0.4,0.7-0.8c0-0.3,0-0.5,0-0.8l0-0.4l0-0.4
	c0-0.5-0.1-1.1-0.1-1.6c-0.1-0.5-0.1-1.1-0.2-1.6L90.8,41c0-0.1,0-0.3-0.1-0.4c0-0.3-0.1-0.5-0.1-0.8c-0.4-2-0.9-4.1-1.6-6.1
	c-0.1-0.2-0.2-0.4-0.4-0.5c-0.2-0.1-0.4-0.1-0.6,0c-1.1,0.4-2.2,0.8-3.4,1.2c-0.9,0.3-1.9,0.7-2.8,1c-0.4-1.1-0.9-2.2-1.4-3.3
	c-1.1-2.1-2.3-4.2-3.8-6.1l1.7-1.4c1.4,1.8,2.7,3.8,3.7,5.8c0.2,0.3,0.6,0.5,1,0.3l3.3-1.6c0.4-0.2,0.5-0.6,0.3-1
	c-0.9-1.9-2.1-3.7-3.3-5.4c-1.2-1.7-2.6-3.3-4.1-4.8c-0.2-0.2-0.4-0.2-0.6-0.2c-0.2,0-0.4,0.1-0.5,0.2c-0.8,0.8-1.7,1.7-2.5,2.6
	c-0.7,0.7-1.4,1.4-2.1,2.1l-0.6-0.6l-0.7-0.6c-0.2-0.2-0.4-0.4-0.7-0.6l-0.7-0.6c-1.9-1.5-3.9-2.8-6.1-3.8l1-2
	c2.1,1,4.1,2.2,5.9,3.6c0.3,0.2,0.7,0.2,1-0.1l2.3-2.9c0.2-0.3,0.2-0.8-0.2-1.1c-1.7-1.3-3.5-2.4-5.3-3.4c-1.8-1-3.8-1.8-5.8-2.6
	c-0.2-0.1-0.4-0.1-0.6,0c-0.2,0.1-0.3,0.2-0.4,0.4c-0.4,1.1-0.8,2.3-1.2,3.5c-0.3,0.9-0.6,1.9-0.9,2.8c-0.6-0.2-1.1-0.4-1.7-0.5
	L58,14.1c-0.3-0.1-0.6-0.1-0.9-0.2c-2.3-0.5-4.7-0.8-7.1-0.8l0-2.2c2.3,0,4.6,0.3,6.9,0.7c0.4,0.1,0.7-0.2,0.8-0.6l0.8-3.6
	c0.1-0.4-0.2-0.8-0.6-0.9c-2.1-0.4-4.2-0.7-6.3-0.8c-2.1-0.1-4.2,0-6.3,0.2c-0.2,0-0.4,0.1-0.5,0.3c-0.1,0.2-0.2,0.4-0.2,0.5
	c0.1,1.1,0.3,2.4,0.5,3.6c0.1,1,0.3,2,0.4,2.9l-0.9,0.1l-0.9,0.2l-0.4,0.1c-0.1,0-0.3,0.1-0.4,0.1L41.9,14c-2.3,0.5-4.6,1.3-6.8,2.4
	l-0.9-2c2.1-1,4.3-1.8,6.5-2.3c0.4-0.1,0.6-0.5,0.5-0.9l-0.8-3.6c-0.1-0.4-0.5-0.6-0.9-0.5c-2.1,0.5-4.1,1.2-6,2
	c-1.9,0.8-3.8,1.8-5.6,2.9c-0.2,0.1-0.3,0.3-0.4,0.5c-0.1,0.2,0,0.4,0.1,0.6c0.6,1,1.3,2,2,3.1c0.5,0.8,1.1,1.7,1.6,2.5
	c-0.3,0.2-0.5,0.3-0.7,0.5l-0.7,0.5c-0.5,0.4-0.9,0.7-1.4,1.1c-1.9,1.5-3.6,3.2-5.1,5.1l-1.7-1.4c1.5-1.8,3.1-3.5,4.9-4.9
	c0.3-0.2,0.3-0.7,0.1-1l-2.3-2.8c-0.3-0.3-0.7-0.3-1.1-0.1c-0.2,0.2-0.4,0.3-0.6,0.5c-0.2,0.2-0.4,0.3-0.6,0.5
	c-0.4,0.4-0.8,0.7-1.2,1.1c-0.7,0.8-1.5,1.5-2.2,2.3c-0.7,0.8-1.3,1.6-2,2.5c-0.3,0.4-0.6,0.9-0.9,1.3L15.4,24l-0.2,0.3
	c-0.1,0.2-0.3,0.4-0.4,0.7c-0.1,0.2-0.2,0.4-0.1,0.6c0,0.2,0.2,0.4,0.3,0.5c1,0.6,2,1.2,3.1,1.9c0.9,0.5,1.7,1,2.5,1.5
	c-0.3,0.5-0.6,1-0.9,1.6l-0.8,1.6c-1,2.2-1.8,4.4-2.4,6.8l-2.1-0.5c0.5-2.2,1.3-4.4,2.2-6.6c0.2-0.3,0-0.8-0.4-0.9l-3.3-1.6
	c-0.4-0.2-0.8,0-1,0.4c-0.1,0.2-0.2,0.5-0.3,0.7c-0.1,0.2-0.2,0.5-0.3,0.7c-0.2,0.5-0.4,1-0.6,1.5c-0.1,0.2-0.2,0.5-0.3,0.8
	c-0.1,0.3-0.2,0.5-0.2,0.8c-0.1,0.3-0.2,0.5-0.2,0.8c-0.1,0.3-0.1,0.5-0.2,0.8c-0.1,0.3-0.1,0.5-0.2,0.8c-0.1,0.3-0.1,0.5-0.2,0.8
	c-0.1,0.5-0.2,1-0.3,1.5c-0.1,0.5-0.2,1-0.3,1.6c0,0.3-0.1,0.5-0.1,0.8c0,0.3-0.1,0.5-0.1,0.8c0,0.2,0,0.4,0.1,0.6
	c0.1,0.2,0.3,0.3,0.5,0.3c1.1,0.1,2.4,0.2,3.6,0.4c1,0.1,2,0.2,2.9,0.3c0,0.3,0,0.6-0.1,0.9l-0.1,0.9c0,0.6,0,1.2,0,1.8
	c0,2.4,0.3,4.8,0.8,7.1l-2.1,0.5c-0.5-2.3-0.8-4.6-0.8-6.9c0-0.4-0.3-0.7-0.8-0.7l-3.7,0c-0.4,0-0.7,0.4-0.7,0.8c0,0.3,0,0.5,0,0.8
	l0,0.4l0,0.4c0,0.5,0.1,1.1,0.1,1.6c0.1,0.5,0.1,1.1,0.2,1.6l0.1,0.4c0,0.1,0,0.3,0.1,0.4c0,0.3,0.1,0.5,0.1,0.8
	c0.4,2,0.9,4.1,1.6,6.1c0.1,0.2,0.2,0.4,0.4,0.5c0.2,0.1,0.4,0.1,0.6,0c1.1-0.4,2.2-0.8,3.4-1.2c0.9-0.3,1.9-0.7,2.8-1
	c0.4,1.1,0.9,2.2,1.4,3.3c1.1,2.1,2.3,4.2,3.8,6.1l-1.7,1.4c-1.4-1.8-2.7-3.8-3.7-5.8c-0.2-0.3-0.6-0.5-1-0.3l-3.3,1.6
	c-0.4,0.2-0.5,0.6-0.3,1c0.9,1.9,2.1,3.7,3.3,5.4c1.2,1.7,2.6,3.3,4.1,4.8c0.2,0.2,0.4,0.2,0.6,0.2c0.2,0,0.4-0.1,0.5-0.2
	c0.8-0.8,1.7-1.7,2.5-2.6c0.7-0.7,1.4-1.4,2.1-2.1l0.6,0.6l0.7,0.6c0.2,0.2,0.4,0.4,0.7,0.6l0.7,0.6c1.9,1.5,3.9,2.8,6.1,3.8l-1,2
	c-2.1-1-4.1-2.2-5.9-3.6c-0.3-0.2-0.7-0.2-1,0.1l-2.3,2.9c-0.2,0.3-0.2,0.8,0.2,1.1c1.7,1.3,3.5,2.4,5.3,3.4c1.8,1,3.8,1.8,5.8,2.6
	c0.2,0.1,0.4,0.1,0.6,0c0.2-0.1,0.3-0.2,0.4-0.4c0.4-1.1,0.8-2.3,1.2-3.5c0.3-0.9,0.6-1.9,0.9-2.8c0.6,0.2,1.1,0.4,1.7,0.5l0.9,0.2
	c0.3,0.1,0.6,0.1,0.9,0.2c2.3,0.5,4.7,0.8,7.1,0.8l0,2.2c-2.3,0-4.6-0.3-6.9-0.7c-0.4-0.1-0.7,0.2-0.8,0.6L40.9,87
	c-0.1,0.4,0.2,0.8,0.6,0.9c2.1,0.4,4.2,0.7,6.3,0.8c2.1,0.1,4.2,0,6.3-0.2c0.2,0,0.4-0.1,0.5-0.3c0.1-0.2,0.2-0.4,0.2-0.5
	c-0.1-1.1-0.3-2.4-0.5-3.6c-0.1-1-0.3-2-0.4-2.9l0.9-0.1l0.9-0.2l0.4-0.1c0.1,0,0.3-0.1,0.4-0.1l0.9-0.2c2.3-0.5,4.6-1.3,6.8-2.4
	l0.9,2c-2.1,1-4.3,1.8-6.5,2.3c-0.4,0.1-0.6,0.5-0.5,0.9l0.8,3.6c0.1,0.4,0.5,0.6,0.9,0.5c2.1-0.5,4.1-1.2,6-2
	c1.9-0.8,3.8-1.8,5.6-2.9c0.2-0.1,0.3-0.3,0.4-0.5c0.1-0.2,0-0.4-0.1-0.6c-0.6-1-1.3-2-2-3.1c-0.5-0.8-1.1-1.7-1.6-2.5
	c0.3-0.2,0.5-0.3,0.7-0.5l0.7-0.5c0.5-0.4,0.9-0.7,1.4-1.1c1.9-1.5,3.6-3.2,5.1-5.1l1.7,1.4c-1.5,1.8-3.1,3.5-4.9,4.9
	c-0.3,0.2-0.3,0.7-0.1,1l2.3,2.8c0.3,0.3,0.7,0.3,1.1,0.1c0.2-0.2,0.4-0.3,0.6-0.5c0.2-0.2,0.4-0.3,0.6-0.5c0.4-0.4,0.8-0.7,1.2-1.1
	c0.7-0.8,1.5-1.5,2.2-2.3c0.7-0.8,1.3-1.6,2-2.5c0.3-0.4,0.6-0.9,0.9-1.3l0.2-0.3l0.2-0.3c0.1-0.2,0.3-0.4,0.4-0.7
	c0.1-0.2,0.2-0.4,0.1-0.6c0-0.2-0.2-0.4-0.3-0.5c-1-0.6-2-1.2-3.1-1.9c-0.9-0.5-1.7-1-2.5-1.5c0.3-0.5,0.6-1,0.9-1.6l0.8-1.6
	c1-2.2,1.8-4.4,2.4-6.8l2.1,0.5c-0.5,2.2-1.3,4.4-2.2,6.6c-0.2,0.3,0,0.8,0.4,0.9l3.3,1.6c0.4,0.2,0.8,0,1-0.4
	c0.1-0.2,0.2-0.5,0.3-0.7c0.1-0.2,0.2-0.5,0.3-0.7c0.2-0.5,0.4-1,0.6-1.5c0.1-0.2,0.2-0.5,0.3-0.8c0.1-0.3,0.2-0.5,0.2-0.8
	c0.1-0.3,0.2-0.5,0.2-0.8c0.1-0.3,0.1-0.5,0.2-0.8c0.1-0.3,0.1-0.5,0.2-0.8c0.1-0.3,0.1-0.5,0.2-0.8c0.1-0.5,0.2-1,0.3-1.5
	c0.1-0.5,0.2-1,0.3-1.6c0-0.3,0.1-0.5,0.1-0.8c0-0.3,0.1-0.5,0.1-0.8c0-0.2,0-0.4-0.1-0.6c-0.1-0.2-0.3-0.3-0.5-0.3
	c-1.1-0.1-2.4-0.2-3.6-0.4c-1-0.1-2-0.2-2.9-0.3c0-0.3,0-0.6,0.1-0.9l0.1-0.9c0-0.6,0-1.2,0-1.8c0-2.4-0.3-4.8-0.8-7.1l2.1-0.5
	C85.8,41.7,86,44,86.1,46.3z M81.6,39.6c0.6,2.4,0.9,4.9,0.9,7.4c0,1.4-0.1,2.7-0.2,4c0,0.2,0,0.3,0.2,0.5c0.1,0.1,0.3,0.2,0.5,0.3
	c1.1,0.2,2.4,0.3,3.6,0.5c1,0.1,1.9,0.3,2.9,0.4c-0.1,0.4-0.2,0.9-0.2,1.3l-0.1,0.7c0,0.2-0.1,0.4-0.1,0.7c-0.1,0.4-0.2,0.9-0.3,1.3
	c-0.1,0.4-0.2,0.9-0.3,1.3c-0.1,0.2-0.1,0.4-0.2,0.6c-0.1,0.2-0.1,0.4-0.2,0.6c-0.1,0.4-0.3,0.8-0.4,1.3c-0.1,0.4-0.3,0.8-0.5,1.3
	l-0.2,0.6c-0.1,0.2-0.2,0.4-0.3,0.6l-2-0.9c0.9-2.2,1.7-4.5,2.2-6.9c0.1-0.4-0.2-0.8-0.6-0.8l-3.6-0.7c-0.4-0.1-0.8,0.1-0.9,0.5
	c-0.5,2.4-1.3,4.8-2.4,7.1l-0.5,0.9c-0.2,0.3-0.3,0.6-0.5,0.9c-0.3,0.6-0.7,1.2-1,1.7c-0.1,0.1-0.1,0.3-0.1,0.5
	c0.1,0.2,0.2,0.3,0.3,0.4c1,0.6,2,1.3,3.1,2c0.8,0.5,1.6,1.1,2.4,1.6c-0.2,0.4-0.5,0.7-0.8,1.1L81.9,71l-0.2,0.3l-0.2,0.3
	c-0.3,0.4-0.6,0.7-0.8,1.1l-0.2,0.3l-0.2,0.3c-0.1,0.2-0.3,0.3-0.4,0.5c-0.1,0.2-0.3,0.3-0.4,0.5l-0.2,0.3L79,74.6
	c-0.3,0.3-0.6,0.6-0.9,1c-0.2,0.2-0.3,0.3-0.5,0.5l-0.5,0.5c-0.3,0.3-0.7,0.6-1,0.9l-1.4-1.7c1.8-1.6,3.5-3.3,4.9-5.2
	c0.2-0.3,0.2-0.8-0.1-1l-2.9-2.2c-0.3-0.2-0.8-0.2-1,0.1c-1.5,2-3.3,3.8-5.2,5.3l-0.8,0.6l-0.4,0.3c-0.1,0.1-0.3,0.2-0.4,0.3
	l-0.8,0.6c-0.3,0.2-0.6,0.4-0.9,0.5c-0.1,0.1-0.2,0.2-0.3,0.4c0,0.2,0,0.4,0.1,0.5c0.6,1,1.2,2.1,1.9,3.2c0.5,0.8,1,1.7,1.5,2.5
	c-0.4,0.2-0.8,0.4-1.2,0.7c-0.2,0.1-0.4,0.2-0.6,0.3l-0.6,0.3c-0.4,0.2-0.8,0.4-1.2,0.6c-0.4,0.2-0.8,0.4-1.2,0.5
	c-0.4,0.2-0.8,0.3-1.2,0.5c-0.2,0.1-0.4,0.2-0.6,0.2C63.4,84.9,63.2,85,63,85c-0.4,0.1-0.8,0.3-1.3,0.4c-0.1,0-0.2,0.1-0.3,0.1
	L61,85.7l-0.6,0.2l-0.6-2.1c2.3-0.6,4.6-1.5,6.7-2.6c0.4-0.2,0.5-0.6,0.3-1l-1.7-3.2c-0.2-0.4-0.6-0.5-0.9-0.4
	c-1.1,0.6-2.3,1-3.4,1.5c-0.3,0.1-0.6,0.2-0.9,0.3l-0.4,0.1l-0.2,0.1L59,78.6l-0.9,0.3c-0.2,0-0.3,0.1-0.5,0.1l-0.5,0.1l-1,0.2
	l-1,0.2l-0.5,0.1c-0.2,0-0.3,0-0.5,0.1l-1,0.1c-0.2,0-0.3,0.1-0.4,0.3c-0.1,0.1-0.2,0.3-0.1,0.5c0.1,1.1,0.2,2.4,0.3,3.7
	c0.1,1,0.2,2,0.3,2.9c-0.4,0-0.9,0.1-1.3,0.1c-0.4,0-0.9,0-1.3,0c-0.2,0-0.4,0-0.7,0c-0.2,0-0.4,0-0.7,0c-0.4,0-0.9,0-1.3,0
	c-0.9-0.1-1.8-0.1-2.7-0.2L44.6,87c-0.2,0-0.4,0-0.7-0.1c-0.4-0.1-0.9-0.2-1.3-0.2l0.4-2.2c2.4,0.4,4.8,0.6,7.2,0.6
	c0.4,0,0.7-0.3,0.7-0.8l-0.1-3.7c0-0.4-0.3-0.7-0.6-0.7c-2.5,0-5-0.2-7.4-0.8c-0.7-0.1-1.3-0.3-2-0.5c-0.3-0.1-0.6-0.2-1-0.3
	c-0.3-0.1-0.6-0.2-1-0.3c-0.2-0.1-0.3,0-0.5,0c-0.2,0.1-0.3,0.2-0.4,0.4c-0.4,1.1-0.9,2.3-1.3,3.4c-0.3,0.9-0.7,1.8-1,2.7
	c-0.4-0.2-0.8-0.3-1.2-0.5c-0.4-0.2-0.8-0.4-1.2-0.5c-0.2-0.1-0.4-0.2-0.6-0.3c-0.2-0.1-0.4-0.2-0.6-0.3c-0.4-0.2-0.8-0.4-1.2-0.6
	c-0.4-0.2-0.8-0.4-1.2-0.6c-0.2-0.1-0.4-0.2-0.6-0.3c-0.2-0.1-0.4-0.2-0.6-0.4c-0.4-0.2-0.8-0.5-1.1-0.7c-0.4-0.3-0.7-0.5-1.1-0.8
	l1.3-1.8c1.9,1.4,4,2.6,6.2,3.7c0.4,0.2,0.8,0,1-0.4l1.5-3.3c0.2-0.4,0-0.8-0.3-0.9c-2.3-1.1-4.4-2.4-6.4-3.9
	c-0.3-0.2-0.5-0.4-0.8-0.6L28,71.7l-0.4-0.3L27.2,71l-0.7-0.7c-0.1-0.1-0.3-0.2-0.5-0.2c-0.2,0-0.4,0.1-0.5,0.2
	c-0.8,0.8-1.7,1.7-2.7,2.5c-0.7,0.7-1.4,1.4-2.1,2c-0.3-0.3-0.6-0.7-0.9-1c-0.3-0.3-0.6-0.7-0.9-1c-0.1-0.2-0.3-0.3-0.4-0.5
	c-0.1-0.2-0.3-0.4-0.4-0.5c-0.3-0.4-0.6-0.7-0.8-1.1c-0.5-0.7-1-1.4-1.5-2.2L15.5,68l-0.2-0.3l-0.2-0.3c-0.2-0.4-0.4-0.8-0.6-1.2
	l1.9-1c1.1,2.1,2.5,4.1,4,6c0.3,0.3,0.7,0.3,1,0.1l2.8-2.4c0.3-0.3,0.4-0.7,0.2-0.9c-1.6-1.9-2.9-4.1-4-6.3l-0.2-0.5L20,60.7
	l-0.4-0.9c-0.1-0.3-0.2-0.6-0.4-0.9c-0.1-0.3-0.2-0.6-0.3-1c-0.1-0.2-0.2-0.3-0.3-0.4c-0.2-0.1-0.4-0.1-0.6,0
	c-1.1,0.4-2.3,0.7-3.5,1.1c-0.9,0.3-1.9,0.6-2.8,0.9l-0.2-0.6l-0.2-0.6c-0.1-0.4-0.2-0.9-0.4-1.3c-0.2-0.9-0.4-1.7-0.6-2.6
	C10,52.6,9.8,50.8,9.8,49l2.2-0.1c0.1,2.4,0.4,4.8,1,7.1c0.1,0.4,0.5,0.6,0.9,0.5l3.5-0.9c0.4-0.1,0.6-0.5,0.6-0.8
	c-0.6-2.4-0.9-4.9-0.9-7.4c0-1.4,0.1-2.7,0.2-4c0-0.2,0-0.3-0.2-0.5c-0.1-0.1-0.3-0.2-0.5-0.3c-1.1-0.2-2.4-0.3-3.6-0.5
	c-1-0.1-1.9-0.3-2.9-0.4c0.1-0.4,0.2-0.9,0.2-1.3l0.1-0.7c0-0.2,0.1-0.4,0.1-0.7c0.1-0.4,0.2-0.9,0.3-1.3c0.1-0.4,0.2-0.9,0.3-1.3
	c0.1-0.2,0.1-0.4,0.2-0.6c0.1-0.2,0.1-0.4,0.2-0.6c0.1-0.4,0.3-0.8,0.4-1.3c0.1-0.4,0.3-0.8,0.5-1.3l0.2-0.6
	c0.1-0.2,0.2-0.4,0.3-0.6l2,0.9c-0.9,2.2-1.7,4.5-2.2,6.9c-0.1,0.4,0.2,0.8,0.6,0.8l3.6,0.7c0.4,0.1,0.8-0.1,0.9-0.5
	c0.5-2.4,1.3-4.8,2.4-7.1l0.5-0.9c0.2-0.3,0.3-0.6,0.5-0.9c0.3-0.6,0.7-1.2,1-1.7c0.1-0.1,0.1-0.3,0.1-0.5c-0.1-0.2-0.2-0.3-0.3-0.4
	c-1-0.6-2-1.3-3.1-2c-0.8-0.5-1.6-1.1-2.4-1.6c0.2-0.4,0.5-0.7,0.8-1.1l0.4-0.5l0.2-0.3L18,23c0.3-0.4,0.6-0.7,0.8-1.1l0.2-0.3
	l0.2-0.3c0.1-0.2,0.3-0.3,0.4-0.5c0.1-0.2,0.3-0.3,0.4-0.5l0.2-0.3l0.2-0.2c0.3-0.3,0.6-0.6,0.9-1c0.2-0.2,0.3-0.3,0.5-0.5l0.5-0.5
	c0.3-0.3,0.7-0.6,1-0.9l1.4,1.7c-1.8,1.6-3.5,3.3-4.9,5.2c-0.2,0.3-0.2,0.8,0.1,1l2.9,2.2c0.3,0.2,0.8,0.2,1-0.1
	c1.5-2,3.3-3.8,5.2-5.3l0.8-0.6l0.4-0.3c0.1-0.1,0.3-0.2,0.4-0.3l0.8-0.6c0.3-0.2,0.6-0.4,0.9-0.5c0.1-0.1,0.2-0.2,0.3-0.4
	c0-0.2,0-0.4-0.1-0.5c-0.6-1-1.2-2.1-1.9-3.2c-0.5-0.8-1-1.7-1.5-2.5c0.4-0.2,0.8-0.4,1.2-0.7c0.2-0.1,0.4-0.2,0.6-0.3l0.6-0.3
	c0.4-0.2,0.8-0.4,1.2-0.6c0.4-0.2,0.8-0.4,1.2-0.5c0.4-0.2,0.8-0.3,1.2-0.5c0.2-0.1,0.4-0.2,0.6-0.2c0.2-0.1,0.4-0.2,0.6-0.2
	C37,9.3,37.4,9.2,37.8,9C37.9,9,38,9,38.1,8.9l0.3-0.1l0.6-0.2l0.6,2.1c-2.3,0.6-4.6,1.5-6.7,2.6c-0.4,0.2-0.5,0.6-0.3,1l1.7,3.2
	c0.2,0.4,0.6,0.5,0.9,0.4c1.1-0.6,2.3-1,3.4-1.5c0.3-0.1,0.6-0.2,0.9-0.3L40,16l0.2-0.1l0.2-0.1l0.9-0.3c0.2,0,0.3-0.1,0.5-0.1
	l0.5-0.1l1-0.2l1-0.2l0.5-0.1c0.2,0,0.3,0,0.5-0.1l1-0.1c0.2,0,0.3-0.1,0.4-0.3c0.1-0.1,0.2-0.3,0.1-0.5c-0.1-1.1-0.2-2.4-0.3-3.7
	c-0.1-1-0.2-2-0.3-2.9c0.4,0,0.9-0.1,1.3-0.1c0.4,0,0.9,0,1.3,0c0.2,0,0.4,0,0.7,0c0.2,0,0.4,0,0.7,0c0.4,0,0.9,0,1.3,0
	c0.9,0.1,1.8,0.1,2.7,0.2l0.7,0.1c0.2,0,0.4,0,0.7,0.1c0.4,0.1,0.9,0.2,1.3,0.2L56.5,10c-2.4-0.4-4.8-0.6-7.2-0.6
	c-0.4,0-0.7,0.3-0.7,0.8l0.1,3.7c0,0.4,0.3,0.7,0.6,0.7c2.5,0,5,0.2,7.4,0.8c0.7,0.1,1.3,0.3,2,0.5c0.3,0.1,0.6,0.2,1,0.3
	c0.3,0.1,0.6,0.2,1,0.3c0.2,0.1,0.3,0,0.5,0c0.2-0.1,0.3-0.2,0.4-0.4c0.4-1.1,0.9-2.3,1.3-3.4c0.3-0.9,0.7-1.8,1-2.7
	c0.4,0.2,0.8,0.3,1.2,0.5c0.4,0.2,0.8,0.4,1.2,0.5c0.2,0.1,0.4,0.2,0.6,0.3c0.2,0.1,0.4,0.2,0.6,0.3c0.4,0.2,0.8,0.4,1.2,0.6
	c0.4,0.2,0.8,0.4,1.2,0.6c0.2,0.1,0.4,0.2,0.6,0.3c0.2,0.1,0.4,0.2,0.6,0.4c0.4,0.2,0.8,0.5,1.1,0.7c0.4,0.3,0.7,0.5,1.1,0.8
	L72,16.7C70,15.2,68,14,65.8,13c-0.4-0.2-0.8,0-1,0.4l-1.5,3.3c-0.2,0.4,0,0.8,0.3,0.9c2.3,1.1,4.4,2.4,6.4,3.9
	c0.3,0.2,0.5,0.4,0.8,0.6l0.8,0.7l0.4,0.3l0.4,0.4l0.7,0.7c0.1,0.1,0.3,0.2,0.5,0.2c0.2,0,0.4-0.1,0.5-0.2c0.8-0.8,1.7-1.7,2.7-2.5
	c0.7-0.7,1.4-1.4,2.1-2c0.3,0.3,0.6,0.7,0.9,1c0.3,0.3,0.6,0.7,0.9,1c0.1,0.2,0.3,0.3,0.4,0.5c0.1,0.2,0.3,0.4,0.4,0.5
	c0.3,0.4,0.6,0.7,0.8,1.1c0.5,0.7,1,1.4,1.5,2.2l0.4,0.6l0.2,0.3l0.2,0.3c0.2,0.4,0.4,0.8,0.6,1.2l-1.9,1c-1.1-2.1-2.5-4.1-4-6
	c-0.3-0.3-0.7-0.3-1-0.1l-2.8,2.4c-0.3,0.3-0.4,0.7-0.2,0.9c1.6,1.9,2.9,4.1,4,6.3l0.2,0.5l0.2,0.5l0.4,0.9c0.1,0.3,0.2,0.6,0.4,0.9
	c0.1,0.3,0.2,0.6,0.3,1c0.1,0.2,0.2,0.3,0.3,0.4c0.2,0.1,0.4,0.1,0.6,0c1.1-0.4,2.3-0.7,3.5-1.1c0.9-0.3,1.9-0.6,2.8-0.9l0.2,0.6
	l0.2,0.6c0.1,0.4,0.2,0.9,0.4,1.3c0.2,0.9,0.4,1.7,0.6,2.6c0.3,1.7,0.5,3.5,0.6,5.3l-2.2,0.1c-0.1-2.4-0.4-4.8-1-7.1
	c-0.1-0.4-0.5-0.6-0.9-0.5l-3.5,0.9C81.7,38.9,81.5,39.3,81.6,39.6z"/>
<path class="st2" d="M54.6,20c0.2,0.3-0.2,1.3-0.4,1.6c0,0.1-0.1,0.3-0.1,0.4c0.2,0.6,1.9,0.5,2.3,0.5c1,0.1,2.1,0.4,3,0.9
	c1.5,0.9,1.2,1.9,2.6,2.3c1.8,0.6,3.5-0.7,3.9-0.2c0.5,0.7-0.5,1.6-0.9,2.2c-0.5,0.5-0.7,0.7-0.7,1c0.1,0.5,0.9,0.6,1.2,0.8
	c0.8,0.3,1.4,0.5,2,1c1.5,1,3,2.1,4.5,3.1c1,0.7,1.2,1.5,0.9,2.6c-0.3,1.1-0.8,2.3-1.9,2.8c-0.2,0.1-0.5,0.2-0.6,0.4
	c-0.2,0.4,0.4,0.8,0.7,1c0.4,0.4,0.8,0.7,1.1,1.1c0.7,0.7,1.3,1.5,2,2.3c0.2,0.3,0.4,0.8,0,1c-0.2,0.1-0.4,0.1-0.6,0.2
	c-0.1,0-0.7,0-0.7,0.3c0,0.1,0.1,0.1,0.2,0.1c0.9,0.1,1.8,0.2,2.7,0.4c0.6,0.1,1.9,0.3,1.4,1.2c-0.2,0.3-0.5,0.5-0.7,0.8
	C76.2,48.5,76,49.3,76,50c0,0.8-0.2,1.6-0.5,2.3c-0.5,1.6-1.4,3.1-2.4,4.5c-1.5,2.3-3.2,4.4-5.1,6.4c-1.1,1.1-2.3,2.1-3.4,3.1
	c-2.8,2.7-2.4,3.4-4.3,4.7c-1.9,1.3-3.8,1.8-6,2.4c-2,0.5-3.9,1-5.9,1.3c-2.1,0.2-4.1-0.1-6.1-0.5c-2.7-0.5-5.4-1.6-7.1-3.9
	c-0.9-1.1-1.3-2.5-1.6-3.9c-0.1-0.5-0.1-1.3-0.4-1.8c-0.3-0.5-1-0.7-1.5-0.9c-4.8-1.9-6.8-8.9-3.7-13c0.6-0.9,1.5-1.3,2.4-1.9
	c0.1-0.1,0.2-0.1,0.2-0.2c0.1-0.5-0.8-1-1.1-1.4c-0.5-0.6-0.8-1.2-1-1.9c-0.3-1-0.4-2-0.5-3c0-0.4,0-0.8-0.1-1.2
	c0-0.3-0.1-0.8,0.1-1c0.1-0.1,0.3,0,0.4,0c0.1,0,0.2,0,0.2,0c0.1-0.1,0.1-0.2,0-0.3c-0.1-0.6-0.4-1.1-0.4-1.7
	c-0.1-0.6,0-1.2,0.1-1.8c0.2-1,0.7-2.1,1.2-3c0.4-0.7,0.8-0.1,1.2,0.3c0.7,0.6,0.3-1.2,0.2-1.4c-0.1-0.9-0.2-1.9,0.1-2.8
	c0.4-1.2,1.4-2.2,2.4-3c1-0.9,2-1.9,3.1-2.8c0.8-0.7,1.5-1.4,2.4-1.9c1.5-0.9,3.3-1,5-1.1c3.1-0.1,6.2,0,9.3-0.4
	C53.5,20,54.3,19.8,54.6,20C54.6,20,54.6,20,54.6,20z"/>
<g>
	<path class="st7" d="M73.1,53.9c0,0-6.9,0.1-9-0.3c-4.1-0.9-4.6-1-4.6-1c-0.1,0-0.3-0.1-0.4-0.1c0,0-1.6-0.5-2.5-0.7
		c-1-0.2-2-0.2-3-0.1c-1,0-1.9,0.1-2.9,0.3c-0.9,0.2-1.7,0.7-2.5,1.1c-0.9,0.5-2.3,1.5-2.3,1.5c-0.1,0.1-0.1,0.2,0,0.3
		c0,0,1.9,1.5,3.3,2.2c3.5,1.8,9.1,2.1,9.1,2.1c0.1,0,0.2,0,0.2,0s0.1,0,0.2,0l0.5,0c0.1,0,0.2,0,0.2,0c0,0,0.1,0,0.2,0
		c0.1,0,0.4,0,0.4,0c0,0,0,0,0,0c0,0-0.1,0.1-0.2,0.1c0,0-1.8,1.4-3.3,1.9c-0.4,0.1-0.8,0.2-1.2,0.3c-2.2,0.4-4.3-0.1-6-0.9
		c-0.2-0.1-0.5-0.2-0.7-0.3c-0.2-0.1-0.4-0.2-0.6-0.3c0,0,0,0,0,0c-0.6-0.3-1.2-0.7-1.6-1c-0.2-0.1-0.3-0.2-0.4-0.3
		c-0.1-0.1-0.2-0.2-0.3-0.3c0,0,0,0,0,0c-0.1-0.1-0.1-0.1-0.2-0.2c-0.2-0.2-0.4-0.3-0.4-0.3c-0.1-0.1-0.2-0.1-0.3,0
		c-0.4,0.3-0.7,0.5-1.1,0.8c-0.1,0.1-0.1,0.2-0.1,0.3c0,0,0,0,0,0c0,0,0,0.1,0.1,0.1c0,0,0,0,0,0c0,0,0,0.1,0.1,0.1c0,0,0,0,0,0.1
		c0,0.1,0.1,0.1,0.1,0.2c0,0.1,0.1,0.1,0.1,0.2c0,0.1,0.1,0.1,0.1,0.2c0.2,0.2,0.3,0.4,0.5,0.6c1.9,2.1,4.8,2.6,6.8,2.9
		c3.9,0.7,4.5-0.3,6.5,0.9c1,0.6,1.7,1.4,3.1,1.5c0.4,0,1.2,0,2.5-0.6c1.1-0.5,2-1.2,2.7-1.9c0.1-0.1,0.1-0.1,0.2-0.2
		c0.9-0.9,1.8-2.3,1.8-2.3c0.1-0.1,0-0.1-0.1-0.1c0,0-2.5,1.1-4.6,1.3c-1.8,0.2-4-0.2-4-0.2c-0.1,0-0.1-0.1,0-0.1c0,0,7.8-1,11.7-5
		c0.3-0.3,0.6-0.6,0.9-1c0.5-0.6,1.1-1.7,1.1-1.7C73.3,54,73.3,53.9,73.1,53.9z M57.7,57.3c-3.4-0.3-6.2-1.6-6.2-1.8
		c0-0.1,1.4,0.1,1.6,0.1c0.8,0.1,1.6,0.1,2.3,0.1c0.5,0,0.9,0,1.3-0.2c0.1,0,0.1-0.1,0.2-0.1c0.1-0.1,0-0.3-0.1-0.4
		c-0.4-0.4-1-0.7-1.5-1c0,0-0.1-0.1-0.1-0.1c0-0.1,0-0.1,0.1-0.2c0.1,0,0.1,0,0.2,0c1.1,0,2.1,0.4,3.1,0.9c1.1,0.5,2.1,1.3,3.3,1.6
		c1.3,0.4,2.1,0.3,2.1,0.4C64,56.9,61,57.6,57.7,57.3z"/>
</g>
<path class="st7" d="M45.9,73.2c-0.1,0.2-1.7,0-2-0.1c-2.1-0.4-5.7-1-7.8-3.9c0,0-0.1-0.1-0.1-0.1c-1.1-1.5-1.5-3.2-1.2-3.4
	c0.2-0.1,0.6,0.4,0.7,0.5c0.3,0.3,0.7,0.4,1.1,0.5c0.5,0.2,1.1,0.2,1.6,0.5c0.4,0.2,0.8,0.5,1.1,0.8c0.8,0.7,1.7,1.5,2.5,2.2
	c0.1,0.1,0.2,0.2,0.3,0.3c0.4,0.4,0.8,0.7,1.3,1c0.1,0.1,0.1,0.1,0.1,0.1c0.6,0.4,1.6,1,2.3,1.4C45.9,73.1,45.9,73.1,45.9,73.2z"/>
<path class="st7" d="M60.6,68.8c0,0.5-1.6,1.5-1.7,1.6c-2.9,1.9-7.3,2.3-11.4,0.9c-0.7-0.2-1.3-0.5-1.9-0.8c-1.7-0.8-2.8-1.7-2.7-2
	c0.2-0.4,2.7,0.7,6.6,0.3c1-0.1,1.9-0.2,3.1-0.6c1.2-0.4,1.6-0.7,2.8-0.9C56.7,67,58,67,58,67.3c0.1,0.3-1.3,0.6-1.2,0.9
	c0,0.1,0.4,0.2,2.3,0.3C60.2,68.5,60.5,68.5,60.6,68.8C60.6,68.7,60.6,68.8,60.6,68.8z"/>
<path class="st7" d="M51.6,65.2c0,0.3-2.6,0.7-5.9,0.3c-1.5-0.2-9.9-1.1-11.1-5.7c-0.1-0.4-0.2-0.8-0.2-1.2c0-1.1,0.3-2.2,0.9-3.1
	c0.8-1.2,2.1-1.8,3.7-2.6c0.7-0.4,0.7-0.4,0.7-0.4c0.6-0.2,1.5-0.1,2,0.2c0,0,0,0,0.5,0.3c0.7,0.5,0.9,0.6,0.9,0.6
	c0.7,0.4,1.2,0.7,1.2,0.7c0,0-0.6,0.2-1.3,0.4c0,0,0,0-1.2,0.6c-1.7,0.9-2.6,2-2.8,1.9c-0.1-0.1,0.1-0.3,0.5-1.4
	c0.1-0.3,0.1-0.3,0.1-0.3c0.1-0.2-0.4-0.3-1.2-0.1c0,0-0.1,0-0.7,1.1c-1.1,1.7,0.1,3.6,0.2,3.8c1,1.7,1.8,1.8,1.8,1.8
	c0.8,0.1,1.4-0.3,1.4-1c0,0,0,0,0,0c0,0,0,0,0,0c0-0.5,0.5-0.5,1,0c0,0,1.1,1.1,2.9,2c0.8,0.4,1.6,0.7,2.3,1
	C49.7,65,51.6,65,51.6,65.2z"/>
<path class="st7" d="M32.7,57.8c-0.2,2.9,1.5,5.4,1.5,5.4c0.1,0.1,0,0.2-0.1,0.1c0,0-2.1-0.5-3.6-2c-0.1,0-0.1-0.1-0.1-0.1
	c-1.5-1.5-2-3.1-2.2-4c0,0,0,0,0-0.1c-0.1-0.6-0.2-2.4-0.2-2.4c0-0.1,0-0.2,0-0.2c0,0,0-0.1,0-0.2c0,0,0.2-1,0.5-1.7
	c1-2.1,3.1-3.2,3.1-3.2c0.1-0.1,0.3,0,0.3,0.1c0,0,0.1,0.1,0.2,0.3c0.1,0.2,0.1,0.3,0.1,0.3c0,0.1-0.1,0.3-0.2,0.3
	c0,0-0.5,0.3-0.9,0.7c-1,0.9-1.3,2.1-1.5,2.7c-0.3,1.2-0.2,2.5-0.2,2.5c0,0.1,0.1,0.1,0.1,0c0,0,0.6-2,1.8-3.3
	c0.6-0.7,1.5-1.3,1.5-1.3c0.1-0.1,0.3-0.1,0.4,0c0,0,0.4,0.3,0.7,0.7c0.2,0.3,0.4,0.6,0.4,0.6c0.1,0.1,0.1,0.3,0,0.4
	c0,0-1.4,1.8-1.7,3.8C32.8,57.3,32.7,57.6,32.7,57.8z"/>
<path class="st7" d="M68,50.7c-3.3,0.3-5.7-0.6-6.5-0.9c-1.8-0.7-3.1-1.7-3.9-2.4c0,0,0,0,0,0c0,0,0,0,0,0c0-0.3,0-0.7,0-1
	c0-0.1,0.1-0.1,0.1-0.1c0.4,0.2,0.8,0.4,1.3,0.6c0.6,0.3,1.6,0.5,1.6,0.5c0.1,0,0.1,0,0-0.1c0,0-0.8-0.6-1.4-1.1
	c0,0-0.1-0.1-0.1-0.1c-0.6-0.5-1.2-1.1-1.7-1.7c-0.1-0.1-0.1-0.1-0.1-0.1c-0.1-0.1-0.1-0.2-0.1-0.2c0,0,0-0.1,0-0.2c0,0,0-0.8,0-1.2
	c0,0,0-0.1,0-0.1c0.1-0.1,0.5-0.1,0.6-0.1c0.3,0,0.5-0.1,0.8-0.1c0.8,0,1.4,0.1,2.2,0.4c2,0.6,3.8,1.7,3.7,1.9
	c0,0.1-0.4-0.1-1.2-0.1c-0.6,0-1.2,0.1-1.2,0.1c-0.1,0-0.1,0.1,0,0.2c0,0,1.5,1.1,2.9,1.7c0.4,0.2,1.1,0.5,2.2,0.8
	c2.5,0.6,5.9,0.5,5.9,0.5c0.1,0,0.2,0,0.2,0h0c0,0,0.1,0,0.1,0h0.1c0,0,1.1,0,1.2,0.2c0,0,0,0,0,0C74.9,48.5,71.7,50.3,68,50.7z"/>
<path class="st7" d="M56.9,40.1c0.1,0.2,0.9,0.4,1.7,0.4c0,0,1.9,0,4.2,0.8c2.7,0.9,4.5,2.3,4.5,2.3c0.6,0.5,1.7,0.8,2.5,0.7
	c0,0,0,0,0.8-0.1c0.7-0.1,0.7-0.1,0.7-0.1c0.7-0.1,0.9-0.8,0.4-1.4c0,0,0,0-0.8-0.7c-1.2-1.1-2.2-2.2-3.8-2.8
	c-1.6-0.6-3-0.6-4.8-0.6c-0.6,0-1.5,0.1-3.2,0.2c-1,0.1-1,0.1-1,0.1c-0.8,0.1-1.4,0.3-1.3,0.6c0,0,0,0,0.1,0.3
	C56.9,40.1,56.9,40.1,56.9,40.1z"/>
<path class="st7" d="M71.8,35.9c-0.1,0.4-0.3,0.8-0.4,1c-0.5,0.9-1.3,1.1-2.3,1.1c-1.8-0.1-3.6-0.6-5.4-1c-1.9-0.4-4.2-0.7-6,0.4
	c-0.3,0.2-1,0.8-1.4,0.6c-0.2-0.1-0.3-0.3-0.3-0.3c-0.1-0.1-0.2-0.4-0.2-0.6c0.1-0.3,0.4-0.4,0.9-0.7c0.2-0.1,0.5-0.3,0.7-0.6
	c0,0,0-0.1,0-0.1c-1.7,0.1-5.8,0.3-9.9-0.6c-1.4-0.3-2.7-0.8-4-1.3c-0.9-0.4-1.8-0.8-2.6-1.3c-0.2-0.1-0.3-0.2-0.4-0.3
	c-0.1-0.2-0.1-0.4-0.1-0.6c0-1.2,0.2-2.5,0.6-3.6c0.5-1.7,1.3-3.3,2.5-4.7c0,0,0-0.1-0.1-0.1c-1.1,0.6-2.7,1.7-4.1,3.4
	c-0.1,0.1-0.1,0.2-0.2,0.3c-0.3,0.4-0.6,0.8-0.9,1.3c-0.1,0.2-0.3,0.5-0.4,0.7c-0.1,0.1-0.1,0.2-0.2,0.3c0,0.1-0.1,0.3-0.2,0.2
	c0,0,0,0,0,0c-0.2-0.7-0.2-1.4-0.2-2.1c0-0.4,0.1-0.8,0.2-1.2c0.1-0.4,0.2-0.9,0.4-1.3c0.1-0.3,0.3-0.5,0.5-0.8
	c0.5-0.6,1.2-1.1,1.9-1.3c1.8-0.6,3.6-0.8,5.4-0.8c2-0.1,3.9,0,5.9,0c0,0,0.1,0.1,0,0.1c-1,0.5-1.9,1-2.5,1.4
	c-1.3,0.7-2.3,1.4-3.6,2.3c-0.5,0.4-0.9,0.7-1.3,1c0,0,0,0.1,0.1,0.1c1.6-0.8,5.6-2.7,9.6-2.8c2.9-0.1,4.4,0.8,4.8,1
	c0.7,0.4,1.2,0.9,1.5,1.3c0,0,0,0,0,0c0,0,0,0,0,0c0,0,0,0.1,0,0.1c-0.5,0.1-1.1,0.2-1.6,0.3c-0.6,0.1-1.2,0.2-1.8,0.3c0,0,0,0,0,0
	c0,0,0,0.1,0,0.1c2.2,0,6.5,0.4,6.5,0.4c0.1,0,0.3,0,0.4,0c0,0,0,0,0.1,0.1c0.2,0.2-0.7,0.9-0.8,1c-0.4,0.3-0.9,0.5-1.3,0.6
	c-0.8,0.2-1.7,0.1-2.6,0.3c0,0,0,0-0.1,0c-1,0.2-1.5,0.4-2.1,0.6c-2.6,0.8-5.5,0.8-6.3,0.8c-0.1,0-0.1,0-0.1,0c-0.1,0-0.1,0-0.2,0
	c-0.1,0-0.2,0-0.3,0c-0.1,0-0.2,0-0.3,0c-0.1,0-0.1,0-0.2,0c-0.1,0-0.2,0-0.3,0c0,0,0,0,0,0c-0.1,0-0.1,0-0.2,0c-0.1,0-0.2,0-0.3,0
	c-0.1,0-0.3,0-0.4,0c-0.3,0-0.6-0.1-0.9-0.1c-0.1,0-0.3,0-0.4-0.1c-0.2,0-0.3-0.1-0.5-0.1c-0.1,0-0.3-0.1-0.4-0.1
	c-0.1,0-0.3-0.1-0.4-0.1c-0.1,0-0.1,0-0.2,0c-0.2,0-0.4-0.1-0.6-0.2c-0.1,0-0.2-0.1-0.3-0.1c-0.1,0-0.2-0.1-0.3-0.1
	c-0.2-0.1-0.3-0.1-0.5-0.2c0,0,0,0-0.1,0c0,0,0,0,0,0c0,0-0.1,0-0.1-0.1c0,0-0.1,0-0.1,0c0,0,0,0,0,0c0,0,0,0,0,0c0,0,0,0,0,0
	c0,0,0,0,0,0c0,0,0,0,0.1,0.1c0.1,0.1,0.1,0.1,0.2,0.2c0,0,0,0,0,0c0.1,0.1,0.3,0.3,0.8,0.6c0.6,0.4,1.2,0.8,1.5,0.9
	c0,0,1.1,0.6,2.2,0.9c2.1,0.5,3.7-0.2,6.9,0.4c0.9,0.2,2.1,0.4,3.6,1c0.1,0,0.2-0.1,0.1-0.2c-0.4-0.3-0.7-0.6-1.1-0.9
	c-0.3-0.2-0.3-0.3-0.6-0.5c-0.2-0.2-0.5-0.3-0.6-0.4c-0.1,0-0.1-0.1,0-0.2c4.8-1.9,7.2-1.4,8.4-0.7c0.5,0.2,2.3,1.3,4.1,2.4
	c0.6,0.4,1.1,0.7,1.5,0.9c0,0,0,0.1,0,0.1c-0.4,0.1-0.9,0.3-1.6,0.4c-1.1,0.1-1.8-0.1-1.8,0c-0.1,0.2,1.5,1.2,3.1,0.9
	c0.9-0.1,1.3-0.6,1.5-0.4C71.9,35.2,71.9,35.5,71.8,35.9z"/>
<path class="st8" d="M32.9,34.5c0.5,0.6,1,0.9,1.1,0.7s0-1.2-0.4-1.8c0,0,0,0-0.1-1c-0.1-0.6-0.1-0.6-0.1-0.6
	c0.1-0.5,0.4-0.6,0.7-0.3c0.3,0.3,1.1,0.8,1.3,0.5c0,0,0,0,0.2-0.3c0.1-0.2,0.1-0.2,0.1-0.2c0.2-0.3,0-0.9-0.3-1.5c0,0,0,0-0.2-0.7
	c-0.3-0.9-0.3-1-0.3-1c-0.1-0.8-0.6-1-1.2-0.5c0,0-0.3,0.2-0.9,1.6c-0.2,0.5-0.7,1.7-0.5,3.2C32.6,34.1,32.9,34.5,32.9,34.5z"/>
<path class="st8" d="M31.3,35.4c-0.5-0.3-1.2,0-1.4,0.6c0,0,0,0-0.1,0.9c-0.1,0.7-0.2,2,0.6,3.2c0.8,1.2,1.2,1.3,1.2,1.3
	c0.8,0.2,1.4,0.2,1.4,0s-0.4-1.1-0.9-1.5c0,0,0,0-0.4-0.9c-0.3-0.7-0.3-0.7-0.3-0.7c0-0.5,0.2-0.9,0.5-0.7c0,0,0,0,0.3,0.2
	c0.4,0.2,0.4,0.2,0.4,0.2c0.4,0.2,0.8,0.2,0.9-0.1c0,0,0,0,0.1-0.4c0.1-0.3,0.1-0.3,0.1-0.3c0-0.2-0.5-0.8-1.1-1.2c0,0,0,0-0.6-0.4
	C31.3,35.4,31.3,35.4,31.3,35.4z"/>
<path class="st8" d="M30.3,42.9c-0.4-0.2-0.7,0.3-0.7,1.1c0,0,0,0.4,0.2,0.8c0.4,1.1,1.1,1.8,1.6,2.3c0.4,0.4,0.4,0.4,0.4,0.4
	c0.4,0.3,0.7,0.4,0.8,0.2c0,0,0,0,0-0.2c0.1-0.2,0.1-0.2,0.1-0.2c0-0.2-0.1-0.7-0.3-1.1c0,0,0,0-0.1-0.5c-0.1-0.3-0.1-0.3-0.1-0.3
	c0-0.3,0-0.5,0.2-0.5c0,0,0,0,0.1,0.1c0.1,0.1,0.1,0.1,0.1,0.1c0.1,0.1,0.2,0,0.2-0.2c0,0,0,0,0-0.2c0-0.2,0-0.2,0-0.2
	c0-0.2-0.6-0.6-1.3-0.9c0,0-0.1-0.1-0.8-0.4C30.3,42.9,30.3,42.9,30.3,42.9z"/>
<path class="st8" d="M54.8,42c-0.2,0.4-1.2-0.1-2.5,0.1c-1.1,0.2-1,0.7-2.3,1.1c-1.7,0.5-3.1-0.1-3.3-0.5c-0.1-0.1-0.2-0.3-0.2-0.3
	c-0.1-0.2-0.1-0.3-0.1-0.7c0-0.2-0.1-0.5-0.1-0.7c0-0.2,0-0.4-0.2-0.6c0,0-0.1-0.1-0.1-0.1c-0.1,0-0.1,0-0.2,0.1c0,0,0,0,0,0
	c0,0,0,0,0,0c-0.1,0.1-0.1,0.3-0.1,0.4v0c0,0,0,0,0,0c0,0.2,0,0.3-0.1,0.5c-0.1,0.3-0.1,0.6-0.4,0.9c-0.2,0.2-0.4,0.3-0.7,0.2
	c-0.2-0.1-0.3-0.2-0.4-0.3c-0.1-0.1-0.1-0.2-0.1-0.3c-0.1-0.4,0-0.8-0.1-1.2c0-0.1,0-0.1-0.1-0.2c-0.1-0.2-0.3-0.1-0.4,0
	c-0.2,0.4-0.2,0.8-0.3,1.2c0,0-0.1,0.4-0.3,0.7c-0.1,0.2-0.2,0.3-0.2,0.3c0,0-0.1,0.1-0.1,0.1c-0.1,0.1-1.3,1-2.8,0.7
	c-1.1-0.2-1-0.9-2.2-1.2c-1.2-0.3-2.1,0.1-2.3-0.3c-0.1-0.2,0.1-0.5,0.6-1.2c0.3-0.4,0.6-0.9,1.1-1.3c0.1-0.1,0.2-0.2,0.8-0.5
	c0.2-0.1,0.4-0.2,0.8-0.4c0.1-0.1,0.2-0.1,0.3-0.2c0.8-0.4,1.1-0.6,1-0.6c0-0.1-0.6-0.1-1.3-0.1c-0.2,0-0.4,0-0.4,0
	c-0.5,0-0.5,0.1-0.7,0c-0.3,0-0.6,0-0.8-0.2c-0.2-0.2-0.2-0.4-0.2-0.5c-0.1-1,0.4-2.1,0.6-2.6c0-0.1,0.1-0.2,0.1-0.2
	c0.1-0.3,0.4-0.7,0.7-1.2c2.5,2,4.7,3.2,6.4,3.9c1,0.4,2,0.8,2.9,1c0.8,0.2,1.5,0.4,2.1,0.5h0c0.2,0.1,0.4,0.1,0.6,0.1
	c0.8,0.2,1.5,0.3,2.1,0.4c0.6,0.1,1.1,0.2,1.5,0.2c0.3,0.4,0.7,1,1,1.7C55,41.8,54.9,42,54.8,42z"/>
<path class="st9" d="M43.2,52.3"/>
<path class="st8" d="M54.9,46.5c0,0.4-0.1,0.9-0.4,1.4c-0.7,1-2.1,1.5-3.6,1.1c0.2,0.1,0.4,0.3,0.6,0.5c0.3,0.2,0.5,0.3,0.7,0.5
	c-0.3,0-0.7,0.1-1.1,0.1c-0.3,0-0.8,0-1.5-0.3c-1.2-0.5-2.4-1.5-2.7-2.8c0-0.1-0.1-0.2-0.2-0.3c-0.1,0-0.1,0-0.1,0.1c0,0,0,0,0,0
	c0,0.1,0,0.1,0,0.2c0,0.7,0,1.3,0,2c0,0.6-0.1,1.3,0,2c0,0.1,0,0.1,0.1,0.1c0.2,0.1,0.4-0.4,0.4-0.6c0.1-0.3,0.3-0.6,0.7-0.4
	c0.1,0,0.2,0.1,0.3,0.2c0.1,0.1,0.2,0.3,0.3,0.5c0,0.1-0.1,0.3-0.1,0.4c-0.3,0.5-0.8,0.8-1.1,1c0,0,0,0,0,0
	c-0.2,0.1-0.4,0.2-0.4,0.2c-0.9,0.4-1.6,0.4-1.8,0.4c0,0-1.1,0-2.4-0.9c0,0-0.4-0.3-0.7-0.7c-0.1-0.1-0.1-0.2-0.1-0.4
	c0-0.2,0.1-0.3,0.2-0.4c0.1-0.1,0.2-0.3,0.4-0.3c0.1,0,0.1,0,0.2,0c0.2,0,0.2,0.2,0.4,0.5c0.3,0.5,0.4,0.6,0.4,0.5
	c0.1,0,0.1-0.1,0.1-0.2c0.1-0.5,0-1.5,0-1.9c0-0.7,0.1-1.4,0-2c0-0.1-0.1-0.3-0.2-0.3c-0.1,0-0.1,0.2-0.2,0.3
	c-0.2,0.5-1.2,2.2-2.7,2.8c-0.5,0.2-1,0.3-1.5,0.3c-0.4,0-1.1,0.1-1.1-0.1c0-0.1,0.2-0.1,0.7-0.5c0.4-0.2,0.6-0.4,0.6-0.5
	c0-0.2-1.4,0.2-2.5-0.3c-0.6-0.3-1-0.8-1.3-1.3c-0.3-0.5-0.3-0.9-0.2-1c0.2-0.2,1,0.8,2.6,1.2c0.5,0.1,1,0.1,1.4,0.1
	c0.5-0.1,1-0.2,1.3-0.3c2.9-0.9,3.1-3,4.7-2.9c0.1,0,0.3,0,0.4,0.1c0.4,0.1,0.7,0.5,1.1,0.9c0.4,0.5,0.9,1,1.8,1.5
	c0.2,0.1,0.4,0.2,0.6,0.3c0.5,0.2,1.8,0.7,3.3,0.4c0.1,0,0.2,0,0.3,0c0,0,0,0,0,0c1-0.2,1.8-0.7,2.3-1
	C54.8,46.4,54.9,46.4,54.9,46.5z"/>
<path class="st8" d="M36.1,45.5c0.1-0.1,0.3-0.1,0.4-0.2c0.2-0.1,0.4-0.1,0.6-0.2c0.4-0.1,0.6,0.1,0.8,0.4c0.3,0.4,0.8,0.7,1.3,0.7
	c0.1,0,0.1,0,0.2,0c0.3,0.2-0.6,0.4-0.7,0.4c-0.5,0.1-1,0-1.4-0.2c-0.4-0.1-0.8-0.4-1.1-0.7C36.1,45.7,36.1,45.6,36.1,45.5
	C36.1,45.5,36.1,45.5,36.1,45.5z"/>
<path class="st8" d="M53.8,45.5c-0.1-0.1-0.3-0.1-0.4-0.2c-0.2-0.1-0.4-0.1-0.6-0.2c-0.4-0.1-0.6,0.1-0.8,0.4
	c-0.3,0.4-0.8,0.7-1.3,0.7c-0.1,0-0.1,0-0.2,0c-0.3,0.2,0.6,0.4,0.7,0.4c0.5,0.1,1,0,1.4-0.2c0.4-0.1,0.8-0.4,1.1-0.7
	C53.8,45.7,53.9,45.6,53.8,45.5C53.8,45.5,53.8,45.5,53.8,45.5z"/>
<path class="st7" d="M43.2,40.8c-0.4,1-3.3,1.4-4.7,0c-0.5-0.4-0.9-1.3-0.7-1.8c0.2-0.1,0.4-0.2,0.8-0.4c0.1-0.1,0.2-0.1,0.3-0.2
	c0.7-0.1,1.5,0,2,0.2c0.2,0.1,2.2,0.6,2.4,1.8C43.2,40.5,43.3,40.7,43.2,40.8z"/>
<path class="st7" d="M47.2,39c-0.1,0.3-0.4,0.6-0.7,0.7c-0.2,0.1-0.4,0.1-0.5,0.3c-0.1,0.1-0.1,0.3-0.1,0.4c0,0.3-0.1,0.7-0.4,0.9
	c-0.1,0.1-0.1,0.1-0.2,0.1c-0.2,0-0.4-0.3-0.5-0.5c-0.1-0.2-0.2-0.5-0.2-0.7c0-0.1,0-0.3-0.1-0.4c-0.1-0.1-0.1-0.1-0.2-0.1
	c-0.8-0.2-1.6-0.5-2.4-0.9c-0.8-0.4-1.5-0.8-2.1-1.4c-0.7-0.5-1.3-1.2-1.8-1.8c-0.2-0.3-0.5-0.6-0.7-0.9c0-0.1-0.1-0.1-0.1-0.2
	c0-0.1,0-0.1,0.1-0.2c0.2-0.4,0.4-0.8,0.7-1.2c2.6,2.2,5.7,3.8,9,4.8c0.1,0,0.2,0.1,0.2,0.1c0,0,0.1,0.1,0.1,0.2
	C47.3,38.4,47.3,38.7,47.2,39z"/>
<path class="st7" d="M52,39.8c-0.2,1.3-1.8,1.9-2.9,1.9c-0.9,0.1-2.3-0.3-2.5-1c-0.2-0.7,0.9-1.5,1.4-1.8c0.4-0.2,0.8-0.3,1.1-0.4h0
	c0.2,0.1,0.4,0.1,0.6,0.1c0.8,0.2,1.5,0.3,2.1,0.4C52.1,39.4,52.1,39.7,52,39.8z"/>
<path class="st7" d="M39.3,48.1c0,0.1,0,0.2-0.1,0.3c-0.1,0.1-0.1,0.1-0.2,0.2c-0.2,0.1-0.4,0.1-0.7,0c-0.8-0.1-1.7-0.3-2.4-0.8
	c-0.2-0.1-0.5-0.3-0.7-0.5c-0.3-0.5-0.3-0.9-0.2-1c0.2-0.2,1,0.8,2.6,1.2c0.5,0.1,1,0.1,1.4,0.1C39.2,47.7,39.3,47.9,39.3,48.1z"/>
<path class="st7" d="M53.2,47.6C53.2,47.6,53.2,47.7,53.2,47.6c-0.6,0.5-1.3,0.7-2,0.6c-0.9,0-1.7-0.3-2.5-0.7
	c-0.2-0.1-0.3-0.2-0.5-0.3C48.2,47.1,48,47,48,46.9c0-0.1,0.1-0.1,0.2-0.1c0.2,0,0.4,0.1,0.6,0.2c0,0,0,0,0,0
	c0.9,0.4,1.8,0.5,2.8,0.5c0.3,0,0.7-0.1,1-0.1C52.8,47.4,53.3,47.4,53.2,47.6z"/>
<path class="st7" d="M48.2,50.7c0,0.1-0.1,0.3-0.1,0.4c-0.3,0.5-0.8,0.8-1.1,1c0,0,0,0,0,0c-0.6,0.3-1.4,0.4-1.9,0
	c-0.4-0.4-0.5-0.9-0.5-1.4c0-1.2,0-2.5,0.1-3.7c0-0.7,0-1.5,0.3-2.1c0.1-0.3,0.2-0.4,0.4-0.5c0.4,0.1,0.7,0.5,1.1,0.9
	c0.1,0.3,0,0.8,0.1,1.4c0,0,0,0,0,0c0,0.1,0,0.1,0,0.2c0,0.7,0,1.3,0,2c0,0.6-0.1,1.3,0,2c0,0.1,0,0.1,0.1,0.1
	c0.2,0.1,0.4-0.4,0.4-0.6c0.1-0.3,0.3-0.6,0.7-0.4c0.1,0,0.2,0.1,0.3,0.2C48.1,50.3,48.2,50.5,48.2,50.7z"/>
<path class="st8" d="M68,50.7c-3.3,0.3-5.7-0.6-6.5-0.9c-1.8-0.7-3.1-1.7-3.9-2.4c0,0,0,0,0,0c0,0,0,0,0,0c0-0.3,0-0.7,0-1
	c0-0.1,0.1-0.1,0.1-0.1c0.4,0.2,0.8,0.4,1.3,0.6c0.6,0.3,1.6,0.5,1.6,0.5c0.1,0,0.1,0,0-0.1c0,0-0.8-0.6-1.4-1.1
	c1.3,0.5,2.8,0.9,4.5,1.2c3.7,0.7,7,0.7,9.6,0.4h0c0,0,0.1,0,0.1,0c0.7,0,1.2,0,1.3,0.2c0,0,0,0,0,0C74.9,48.5,71.7,50.3,68,50.7z"
	/>
<path class="st8" d="M34.1,63.3c0,0-2.1-0.5-3.6-2c-0.1,0-0.1-0.1-0.1-0.1c-1.5-1.5-2-3.1-2.2-4c0,0,0,0,0-0.1
	c-0.1-0.6-0.3-1.5-0.2-2.6c0.1,1.1,0.6,2.1,1.4,2.7c0.9,0.7,2.1,0.9,3.2,0.6c-0.2,2.9,1.5,5.4,1.5,5.4
	C34.3,63.3,34.3,63.4,34.1,63.3z"/>
<path class="st8" d="M39.4,68.1c0.8,0.7,1.7,1.5,2.5,2.2c-1.1,0-1.2,0-2-0.1c-1.8-0.2-3-0.6-3.9-1.1c-1.1-1.5-1.5-3.2-1.2-3.4
	c0.2-0.1,0.6,0.4,0.7,0.5c0.3,0.3,0.7,0.4,1.1,0.5c0.5,0.2,1.1,0.2,1.6,0.5C38.7,67.5,39,67.8,39.4,68.1z"/>
<path class="st8" d="M34.6,59.9c-0.1-0.4-0.2-0.8-0.2-1.2c0.2,0.2,0.4,0.5,0.6,0.9c0.7,0.9,2.8,3,8.5,4.3c1.5,0.3,2.5,0.4,3.8,0.6
	c2.4,0.7,4.3,0.7,4.2,0.9c0,0.3-2.6,0.7-5.9,0.3C44.2,65.4,35.8,64.4,34.6,59.9z"/>
<path class="st8" d="M60.6,68.8c-1.8,0.8-6,1.3-7,1.4c-1.3,0.2-4.2,0.4-7.2,0.3c-0.2,0-0.5,0-0.9,0c-1.7-0.8-2.8-1.7-2.7-2
	c0.2-0.4,2.7,0.7,6.6,0.3c1-0.1,1.9-0.2,3.1-0.6c1.2-0.4,1.6-0.7,2.8-0.9C56.7,67,58,67,58,67.3c0.1,0.3-1.3,0.6-1.2,0.9
	c0,0.1,0.4,0.2,2.3,0.3C60.2,68.5,60.5,68.5,60.6,68.8C60.6,68.7,60.6,68.8,60.6,68.8z"/>
<path class="st8" d="M49.4,60.5c-0.7,0-1.3,0.1-1.9,0.1c-0.8,0.1-1.7,0.1-2.9-0.1c-0.2-0.2-0.3-0.4-0.5-0.6c0-0.1-0.1-0.1-0.1-0.2
	c0-0.1-0.1-0.1-0.1-0.2c0-0.1-0.1-0.2-0.1-0.2c0,0,0,0,0-0.1c0,0,0-0.1-0.1-0.1c0,0,0,0,0,0c0,0,0-0.1-0.1-0.1c0,0,0,0,0,0
	c-0.1-0.1,0-0.3,0.1-0.3c0.4-0.3,0.7-0.6,1.1-0.8c0.1-0.1,0.3-0.1,0.3,0c0,0,0.1,0.1,0.4,0.3c0.1,0.1,0.1,0.1,0.2,0.2c0,0,0,0,0,0
	c0.1,0.1,0.2,0.2,0.3,0.3c0.1,0.1,0.3,0.2,0.4,0.3c0.5,0.3,1,0.7,1.6,1c0,0,0,0,0,0c0.2,0.1,0.4,0.2,0.6,0.3
	C48.9,60.3,49.2,60.4,49.4,60.5z"/>
<path class="st8" d="M59.4,59.1c-0.3,0-0.6,0-1,0C58.8,59.1,59.1,59.1,59.4,59.1z"/>
<path class="st8" d="M68.2,60.9c0,0-0.9,1.3-1.8,2.3c-0.1,0.1-0.1,0.1-0.2,0.2c-1.5,0.3-3.7,0.4-6.2-0.1c-2-0.4-3.6-1.2-4.7-1.8
	c0.4-0.1,0.8-0.2,1.2-0.3c1.4-0.5,3.3-1.9,3.3-1.9c0.1-0.1,0.2-0.1,0.2-0.1c1.4-0.1,2.6-0.2,3.5-0.3c2.5-0.3,4.4-0.6,6.5-1.4
	c0.4-0.2,0.8-0.3,1.2-0.5c-3.9,4-11.7,5-11.7,5c-0.1,0-0.1,0,0,0.1c0,0,2.3,0.4,4,0.2C65.7,61.9,68.2,60.8,68.2,60.9
	C68.3,60.8,68.3,60.8,68.2,60.9z"/>
<path class="st8" d="M37.8,24.6c0.3,0.5,0.5,1.4,1.2,2.2c-0.3,0.4-0.6,0.8-0.9,1.3c-0.1,0.2-0.3,0.5-0.4,0.7
	c-0.1,0.1-0.1,0.2-0.2,0.3c0,0.1-0.1,0.3-0.2,0.2c0,0,0,0,0,0c-0.2-0.7-0.2-1.4-0.2-2.1c0-0.4,0.1-0.8,0.2-1.2
	C37.4,25.4,37.6,25,37.8,24.6z"/>
<path class="st8" d="M71.8,35.9c-0.1,0.4-0.3,0.8-0.4,1c-0.5,0.9-1.3,1.1-2.3,1.1c-1.8-0.1-3.6-0.6-5.4-1c-1.9-0.4-4.2-0.7-6,0.4
	c-0.3,0.2-1,0.8-1.4,0.6c-0.2-0.1-0.3-0.3-0.3-0.3c-0.1-0.1-0.2-0.4-0.2-0.6c0.1-0.3,0.4-0.4,0.9-0.7c0.2-0.1,0.5-0.3,0.7-0.6
	c0,0,0-0.1,0-0.1c-1.7,0.1-5.8,0.3-9.9-0.6c-1.4-0.3-2.7-0.8-4-1.3c-0.9-0.4-1.8-0.8-2.6-1.3c-0.2-0.1-0.3-0.2-0.4-0.3
	c-0.1-0.2-0.1-0.4-0.1-0.6c0-1.2,0.2-2.5,0.6-3.6c0.2,0,0.4,0.1,0.6,0.1c0.7,0,1.1-0.3,2.1-0.7c1.4-0.6,2.5-0.8,3.8-1.1
	c0.3-0.1,0.7-0.1,1-0.2c0.6-0.1,1.4-0.2,2.4-0.3c3.6-0.2,8.8,0.3,8.8,0.3c0.2,0,0.4,0,0.5,0.1c0,0,0,0,0,0c0,0,0,0.1,0,0.1
	c-0.5,0.1-1.1,0.2-1.6,0.3c-0.6,0.1-1.2,0.2-1.8,0.3c0,0,0,0,0,0c-0.3,0-0.6,0-1,0.1c-0.9,0.1-1.3,0.2-2.5,0.5
	c-3.4,0.7-5.5,0.7-5.5,1c0,0.1,0.6,0.2,1.8,0.3c2.6,0.3,3.9,0.5,4,0.5c1.7,0.1,1.8,0,4.3,0.1c0.5,0,0.9,0,1.3,0.1
	c-1,0.2-1.5,0.4-2.1,0.6c-2.6,0.8-5.5,0.8-6.3,0.8c-0.1,0-0.1,0-0.1,0c-0.1,0-0.1,0-0.2,0c-0.1,0-0.2,0-0.3,0c-0.1,0-0.2,0-0.3,0
	c-0.1,0-0.1,0-0.2,0c-0.1,0-0.2,0-0.3,0c0,0,0,0,0,0c-0.1,0-0.1,0-0.2,0c-0.1,0-0.2,0-0.3,0c-0.1,0-0.3,0-0.4,0
	c-0.3,0-0.6-0.1-0.9-0.1c-0.1,0-0.3,0-0.4-0.1c-0.2,0-0.3-0.1-0.5-0.1c-0.1,0-0.3-0.1-0.4-0.1c-0.1,0-0.3-0.1-0.4-0.1
	c-0.1,0-0.1,0-0.2,0c-0.2,0-0.4-0.1-0.6-0.2c-0.1,0-0.2-0.1-0.3-0.1c-0.1,0-0.2-0.1-0.3-0.1c-0.2-0.1-0.3-0.1-0.5-0.2c0,0,0,0-0.1,0
	c0,0,0,0,0,0c0,0-0.1,0-0.1,0c0,0,0,0-0.1,0c-0.2-0.1-0.3-0.1-0.3-0.1c-0.1,0.1,0.7,1.3,1.5,2.1c2,1.8,4.9,2.4,7.4,2.8
	c1.2,0.2,2.4,0.3,3.6,0.4c1.3,0.1,2.5,0.1,3.8,0.3c1.3,0.3,2.4,0.8,3.7,1c1.5,0.3,2.9,0.5,4.4,0.5c0.7,0,1.5,0,2.2-0.1
	c0.6-0.1,1.1-0.3,1.7-0.5c0.1,0,0.2,0,0.2,0C71.7,35.8,71.8,35.8,71.8,35.9z"/>
<g>
	<path class="st0" d="M532.2,63.8v-33h3.8v29.5h14.6v3.5H532.2z"/>
	<path class="st0" d="M576.9,63.8l-4.1-10.5h-13.2l-4.1,10.5h-3.9l13-33.1h3.2l13,33.1H576.9z M571.6,49.8l-3.8-10.2
		c-0.5-1.3-1-2.9-1.5-4.8c-0.3,1.4-0.8,3-1.4,4.8l-3.9,10.2H571.6z"/>
	<path class="st0" d="M610.3,30.8v21.3c0,3.8-1.1,6.7-3.4,8.9c-2.3,2.2-5.4,3.2-9.4,3.2s-7-1.1-9.2-3.2c-2.2-2.2-3.3-5.1-3.3-8.9
		V30.8h3.8v21.5c0,2.8,0.8,4.9,2.3,6.3c1.5,1.5,3.7,2.2,6.6,2.2c2.8,0,4.9-0.7,6.4-2.2s2.3-3.6,2.3-6.4V30.8H610.3z"/>
	<path class="st0" d="M644.8,63.8h-4.4l-18-27.7h-0.2c0.2,3.2,0.4,6.2,0.4,8.9v18.7H619v-33h4.3l18,27.6h0.2c0-0.4-0.1-1.7-0.2-3.9
		c-0.1-2.2-0.1-3.8-0.1-4.7V30.8h3.6V63.8z"/>
	<path class="st0" d="M668,33.8c-3.6,0-6.5,1.2-8.6,3.6c-2.1,2.4-3.1,5.7-3.1,9.9c0,4.3,1,7.7,3,10c2,2.4,4.9,3.5,8.7,3.5
		c2.3,0,4.9-0.4,7.9-1.2V63c-2.3,0.9-5.1,1.3-8.5,1.3c-4.9,0-8.6-1.5-11.2-4.4c-2.6-2.9-4-7.1-4-12.6c0-3.4,0.6-6.4,1.9-8.9
		c1.3-2.6,3.1-4.5,5.5-5.9s5.2-2.1,8.5-2.1c3.5,0,6.5,0.6,9.1,1.9l-1.6,3.3C673,34.3,670.5,33.8,668,33.8z"/>
	<path class="st0" d="M708.1,63.8h-3.8V48.3h-17.4v15.5H683v-33h3.8v14h17.4v-14h3.8V63.8z"/>
</g>
</svg>
